<?xml version="1.0" encoding="UTF-8" standalone="no"?>
<!-- Created with Inkscape (http://www.inkscape.org/) -->

<svg
   viewBox="0 0 1636.2944 1283.6126"
   height="auto"
   width="100px"
   id="svg3248"
   version="1.1"
   xml:space="preserve"
   xmlns="http://www.w3.org/2000/svg"
   xmlns:svg="http://www.w3.org/2000/svg"><style
     id="style22" /><defs
     id="defs3252"><linearGradient
       id="linearGradient3206"><stop
         style="stop-color:#000000;stop-opacity:1;"
         offset="0"
         id="stop3204" /></linearGradient><pattern
       patternUnits="userSpaceOnUse"
       width="62.323503"
       height="68.009218"
       patternTransform="translate(347.91891,152.77532)"
       preserveAspectRatio="xMidYMid"
       id="pattern100"><g
         id="g99"
         transform="translate(-347.91891,-152.77532)"><path
           id="path66"
           style="fill:#0f969c;stroke:none;stroke-width:0.377953;stroke-linecap:round;stroke-linejoin:round"
           d="m 288.8125,168.83008 c -0.50594,-0.0104 -1.0116,0.0151 -1.50976,0.0742 -2.09264,0.25254 -3.9803,1.05074 -5.53516,2.04297 -3.01928,1.91635 -4.83585,4.47765 -5.71875,6.3125 -0.002,0.003 -0.002,0.006 -0.004,0.01 -0.39698,-0.15862 -0.82054,-0.24015 -1.24804,-0.24023 -1.85853,9e-5 -3.36514,1.5067 -3.36524,3.36523 9e-5,1.85853 1.50671,3.36515 3.36524,3.36524 1.85853,-10e-5 3.36514,-1.50671 3.36523,-3.36524 -9e-5,-1.16284 -0.60048,-2.24324 -1.58789,-2.85742 1.03398,-1.69553 2.78794,-3.88513 5.76758,-5.6543 1.4754,-0.87061 3.22407,-1.56654 5.09765,-1.75781 1.76939,-0.18444 3.63073,0.11095 5.28516,0.9043 0.037,0.0175 0.0745,0.0347 0.11133,0.0527 1.51414,0.7407 2.83422,1.9377 4.10351,3.13086 1.57817,1.49506 3.04048,3.04162 4.48633,4.38477 1.74435,1.62693 3.25597,2.79534 4.91016,3.60351 0.882,0.43227 1.68392,0.67482 2.38867,0.80469 0.13162,1.75198 1.58879,3.10793 3.3457,3.11328 1.85853,-9e-5 3.36514,-1.5067 3.36524,-3.36523 -9e-5,-1.85853 -1.50671,-3.36515 -3.36524,-3.36524 -1.70029,0.003 -3.13158,1.27297 -3.33593,2.96094 -0.60917,-0.18508 -1.28922,-0.46064 -2.01758,-0.87305 -1.51686,-0.86042 -2.85391,-2.01346 -4.53321,-3.66992 -1.37217,-1.35921 -2.79304,-2.93327 -4.38867,-4.48633 -1.2645,-1.24034 -2.6766,-2.51662 -4.39648,-3.37695 -0.0417,-0.0208 -0.0829,-0.0402 -0.125,-0.0606 -1.41242,-0.67389 -2.94311,-1.02148 -4.46094,-1.05273 z"
           transform="translate(92.282509,21.531068)" /><path
           transform="rotate(-60,351.58586,96.095397)"
           style="fill:#0f969c;stroke:none;stroke-width:0.377953;stroke-linecap:round;stroke-linejoin:round"
           id="path69"
           d="m 288.8125,168.83008 c -0.50594,-0.0104 -1.0116,0.0151 -1.50976,0.0742 -2.09264,0.25254 -3.9803,1.05074 -5.53516,2.04297 -3.01928,1.91635 -4.83585,4.47765 -5.71875,6.3125 -0.002,0.003 -0.002,0.006 -0.004,0.01 -0.39698,-0.15862 -0.82054,-0.24015 -1.24804,-0.24023 -1.85853,9e-5 -3.36514,1.5067 -3.36524,3.36523 9e-5,1.85853 1.50671,3.36515 3.36524,3.36524 1.85853,-10e-5 3.36514,-1.50671 3.36523,-3.36524 -9e-5,-1.16284 -0.60048,-2.24324 -1.58789,-2.85742 1.03398,-1.69553 2.78794,-3.88513 5.76758,-5.6543 1.4754,-0.87061 3.22407,-1.56654 5.09765,-1.75781 1.76939,-0.18444 3.63073,0.11095 5.28516,0.9043 0.037,0.0175 0.0745,0.0347 0.11133,0.0527 1.51414,0.7407 2.83422,1.9377 4.10351,3.13086 1.57817,1.49506 3.04048,3.04162 4.48633,4.38477 1.74435,1.62693 3.25597,2.79534 4.91016,3.60351 0.882,0.43227 1.68392,0.67482 2.38867,0.80469 0.13162,1.75198 1.58879,3.10793 3.3457,3.11328 1.85853,-9e-5 3.36514,-1.5067 3.36524,-3.36523 -9e-5,-1.85853 -1.50671,-3.36515 -3.36524,-3.36524 -1.70029,0.003 -3.13158,1.27297 -3.33593,2.96094 -0.60917,-0.18508 -1.28922,-0.46064 -2.01758,-0.87305 -1.51686,-0.86042 -2.85391,-2.01346 -4.53321,-3.66992 -1.37217,-1.35921 -2.79304,-2.93327 -4.38867,-4.48633 -1.2645,-1.24034 -2.6766,-2.51662 -4.39648,-3.37695 -0.0417,-0.0208 -0.0829,-0.0402 -0.125,-0.0606 -1.41242,-0.67389 -2.94311,-1.02148 -4.46094,-1.05273 z" /><path
           transform="rotate(-120,339.15489,149.37473)"
           style="fill:#0f969c;stroke:none;stroke-width:0.377953;stroke-linecap:round;stroke-linejoin:round"
           id="path70"
           d="m 288.8125,168.83008 c -0.50594,-0.0104 -1.0116,0.0151 -1.50976,0.0742 -2.09264,0.25254 -3.9803,1.05074 -5.53516,2.04297 -3.01928,1.91635 -4.83585,4.47765 -5.71875,6.3125 -0.002,0.003 -0.002,0.006 -0.004,0.01 -0.39698,-0.15862 -0.82054,-0.24015 -1.24804,-0.24023 -1.85853,9e-5 -3.36514,1.5067 -3.36524,3.36523 9e-5,1.85853 1.50671,3.36515 3.36524,3.36524 1.85853,-10e-5 3.36514,-1.50671 3.36523,-3.36524 -9e-5,-1.16284 -0.60048,-2.24324 -1.58789,-2.85742 1.03398,-1.69553 2.78794,-3.88513 5.76758,-5.6543 1.4754,-0.87061 3.22407,-1.56654 5.09765,-1.75781 1.76939,-0.18444 3.63073,0.11095 5.28516,0.9043 0.037,0.0175 0.0745,0.0347 0.11133,0.0527 1.51414,0.7407 2.83422,1.9377 4.10351,3.13086 1.57817,1.49506 3.04048,3.04162 4.48633,4.38477 1.74435,1.62693 3.25597,2.79534 4.91016,3.60351 0.882,0.43227 1.68392,0.67482 2.38867,0.80469 0.13162,1.75198 1.58879,3.10793 3.3457,3.11328 1.85853,-9e-5 3.36514,-1.5067 3.36524,-3.36523 -9e-5,-1.85853 -1.50671,-3.36515 -3.36524,-3.36524 -1.70029,0.003 -3.13158,1.27297 -3.33593,2.96094 -0.60917,-0.18508 -1.28922,-0.46064 -2.01758,-0.87305 -1.51686,-0.86042 -2.85391,-2.01346 -4.53321,-3.66992 -1.37217,-1.35921 -2.79304,-2.93327 -4.38867,-4.48633 -1.2645,-1.24034 -2.6766,-2.51662 -4.39648,-3.37695 -0.0417,-0.0208 -0.0829,-0.0402 -0.125,-0.0606 -1.41242,-0.67389 -2.94311,-1.02148 -4.46094,-1.05273 z" /><path
           transform="rotate(180,332.9394,176.01439)"
           style="fill:#0f969c;stroke:none;stroke-width:0.377953;stroke-linecap:round;stroke-linejoin:round"
           id="path71"
           d="m 288.8125,168.83008 c -0.50594,-0.0104 -1.0116,0.0151 -1.50976,0.0742 -2.09264,0.25254 -3.9803,1.05074 -5.53516,2.04297 -3.01928,1.91635 -4.83585,4.47765 -5.71875,6.3125 -0.002,0.003 -0.002,0.006 -0.004,0.01 -0.39698,-0.15862 -0.82054,-0.24015 -1.24804,-0.24023 -1.85853,9e-5 -3.36514,1.5067 -3.36524,3.36523 9e-5,1.85853 1.50671,3.36515 3.36524,3.36524 1.85853,-10e-5 3.36514,-1.50671 3.36523,-3.36524 -9e-5,-1.16284 -0.60048,-2.24324 -1.58789,-2.85742 1.03398,-1.69553 2.78794,-3.88513 5.76758,-5.6543 1.4754,-0.87061 3.22407,-1.56654 5.09765,-1.75781 1.76939,-0.18444 3.63073,0.11095 5.28516,0.9043 0.037,0.0175 0.0745,0.0347 0.11133,0.0527 1.51414,0.7407 2.83422,1.9377 4.10351,3.13086 1.57817,1.49506 3.04048,3.04162 4.48633,4.38477 1.74435,1.62693 3.25597,2.79534 4.91016,3.60351 0.882,0.43227 1.68392,0.67482 2.38867,0.80469 0.13162,1.75198 1.58879,3.10793 3.3457,3.11328 1.85853,-9e-5 3.36514,-1.5067 3.36524,-3.36523 -9e-5,-1.85853 -1.50671,-3.36515 -3.36524,-3.36524 -1.70029,0.003 -3.13158,1.27297 -3.33593,2.96094 -0.60917,-0.18508 -1.28922,-0.46064 -2.01758,-0.87305 -1.51686,-0.86042 -2.85391,-2.01346 -4.53321,-3.66992 -1.37217,-1.35921 -2.79304,-2.93327 -4.38867,-4.48633 -1.2645,-1.24034 -2.6766,-2.51662 -4.39648,-3.37695 -0.0417,-0.0208 -0.0829,-0.0402 -0.125,-0.0606 -1.41242,-0.67389 -2.94311,-1.02148 -4.46094,-1.05273 z" /><path
           transform="rotate(120,326.72392,202.65406)"
           style="fill:#0f969c;stroke:none;stroke-width:0.377953;stroke-linecap:round;stroke-linejoin:round"
           id="path84"
           d="m 288.8125,168.83008 c -0.50594,-0.0104 -1.0116,0.0151 -1.50976,0.0742 -2.09264,0.25254 -3.9803,1.05074 -5.53516,2.04297 -3.01928,1.91635 -4.83585,4.47765 -5.71875,6.3125 -0.002,0.003 -0.002,0.006 -0.004,0.01 -0.39698,-0.15862 -0.82054,-0.24015 -1.24804,-0.24023 -1.85853,9e-5 -3.36514,1.5067 -3.36524,3.36523 9e-5,1.85853 1.50671,3.36515 3.36524,3.36524 1.85853,-10e-5 3.36514,-1.50671 3.36523,-3.36524 -9e-5,-1.16284 -0.60048,-2.24324 -1.58789,-2.85742 1.03398,-1.69553 2.78794,-3.88513 5.76758,-5.6543 1.4754,-0.87061 3.22407,-1.56654 5.09765,-1.75781 1.76939,-0.18444 3.63073,0.11095 5.28516,0.9043 0.037,0.0175 0.0745,0.0347 0.11133,0.0527 1.51414,0.7407 2.83422,1.9377 4.10351,3.13086 1.57817,1.49506 3.04048,3.04162 4.48633,4.38477 1.74435,1.62693 3.25597,2.79534 4.91016,3.60351 0.882,0.43227 1.68392,0.67482 2.38867,0.80469 0.13162,1.75198 1.58879,3.10793 3.3457,3.11328 1.85853,-9e-5 3.36514,-1.5067 3.36524,-3.36523 -9e-5,-1.85853 -1.50671,-3.36515 -3.36524,-3.36524 -1.70029,0.003 -3.13158,1.27297 -3.33593,2.96094 -0.60917,-0.18508 -1.28922,-0.46064 -2.01758,-0.87305 -1.51686,-0.86042 -2.85391,-2.01346 -4.53321,-3.66992 -1.37217,-1.35921 -2.79304,-2.93327 -4.38867,-4.48633 -1.2645,-1.24034 -2.6766,-2.51662 -4.39648,-3.37695 -0.0417,-0.0208 -0.0829,-0.0402 -0.125,-0.0606 -1.41242,-0.67389 -2.94311,-1.02148 -4.46094,-1.05273 z" /><path
           transform="rotate(60,314.29295,255.93339)"
           style="fill:#0f969c;stroke:none;stroke-width:0.377953;stroke-linecap:round;stroke-linejoin:round"
           id="path99"
           d="m 288.8125,168.83008 c -0.50594,-0.0104 -1.0116,0.0151 -1.50976,0.0742 -2.09264,0.25254 -3.9803,1.05074 -5.53516,2.04297 -3.01928,1.91635 -4.83585,4.47765 -5.71875,6.3125 -0.002,0.003 -0.002,0.006 -0.004,0.01 -0.39698,-0.15862 -0.82054,-0.24015 -1.24804,-0.24023 -1.85853,9e-5 -3.36514,1.5067 -3.36524,3.36523 9e-5,1.85853 1.50671,3.36515 3.36524,3.36524 1.85853,-10e-5 3.36514,-1.50671 3.36523,-3.36524 -9e-5,-1.16284 -0.60048,-2.24324 -1.58789,-2.85742 1.03398,-1.69553 2.78794,-3.88513 5.76758,-5.6543 1.4754,-0.87061 3.22407,-1.56654 5.09765,-1.75781 1.76939,-0.18444 3.63073,0.11095 5.28516,0.9043 0.037,0.0175 0.0745,0.0347 0.11133,0.0527 1.51414,0.7407 2.83422,1.9377 4.10351,3.13086 1.57817,1.49506 3.04048,3.04162 4.48633,4.38477 1.74435,1.62693 3.25597,2.79534 4.91016,3.60351 0.882,0.43227 1.68392,0.67482 2.38867,0.80469 0.13162,1.75198 1.58879,3.10793 3.3457,3.11328 1.85853,-9e-5 3.36514,-1.5067 3.36524,-3.36523 -9e-5,-1.85853 -1.50671,-3.36515 -3.36524,-3.36524 -1.70029,0.003 -3.13158,1.27297 -3.33593,2.96094 -0.60917,-0.18508 -1.28922,-0.46064 -2.01758,-0.87305 -1.51686,-0.86042 -2.85391,-2.01346 -4.53321,-3.66992 -1.37217,-1.35921 -2.79304,-2.93327 -4.38867,-4.48633 -1.2645,-1.24034 -2.6766,-2.51662 -4.39648,-3.37695 -0.0417,-0.0208 -0.0829,-0.0402 -0.125,-0.0606 -1.41242,-0.67389 -2.94311,-1.02148 -4.46094,-1.05273 z" /></g></pattern><linearGradient
       x1="0"
       y1="0"
       x2="1"
       y2="0"
       gradientUnits="userSpaceOnUse"
       gradientTransform="matrix(-1.3536279,-380.93909,380.93909,-1.3536279,967.64954,979.07794)"
       spreadMethod="pad"
       id="linearGradient77"><stop
         style="stop-opacity:1;stop-color:#f7c6ae"
         offset="0"
         id="stop74" /><stop
         style="stop-opacity:1;stop-color:#f7c6ae"
         offset="0.00671002"
         id="stop75" /><stop
         style="stop-opacity:1;stop-color:#f7c6ae"
         offset="0.02038544"
         id="stop76" /><stop
         style="stop-opacity:1;stop-color:#9f8575"
         offset="1"
         id="stop77" /></linearGradient><clipPath
       clipPathUnits="userSpaceOnUse"
       id="clipPath79"><path
         d="M 0,1387 H 1920 V 0 H 0 Z"
         transform="translate(-744.14402,-582.86134)"
         id="path79-0" /></clipPath><clipPath
       clipPathUnits="userSpaceOnUse"
       id="clipPath81"><path
         d="M 0,1387 H 1920 V 0 H 0 Z"
         transform="translate(-969.72175,-752.18362)"
         id="path81-7" /></clipPath><clipPath
       clipPathUnits="userSpaceOnUse"
       id="clipPath83"><path
         d="M 0,1387 H 1920 V 0 H 0 Z"
         transform="translate(-973.0303,-751.68552)"
         id="path83-8" /></clipPath><clipPath
       clipPathUnits="userSpaceOnUse"
       id="clipPath85"><path
         d="M 0,1387 H 1920 V 0 H 0 Z"
         transform="translate(-1357.755,-655.91022)"
         id="path85-6" /></clipPath><clipPath
       clipPathUnits="userSpaceOnUse"
       id="clipPath86"><path
         d="M 974.654,751.685 H 1357.76 V 522.799 H 974.654 Z"
         transform="translate(-974.65435,-751.68552)"
         id="path86-8" /></clipPath><clipPath
       clipPathUnits="userSpaceOnUse"
       id="clipPath88"><path
         d="M 0,1387 H 1920 V 0 H 0 Z"
         transform="matrix(1.3333333,0,0,-1.3333333,5160,1849.3333)"
         id="path88-8" /></clipPath><clipPath
       clipPathUnits="userSpaceOnUse"
       id="clipPath90"><path
         d="M 0,1387 H 1920 V 0 H 0 Z"
         transform="translate(-966.8125,-748.68162)"
         id="path90-4" /></clipPath><clipPath
       clipPathUnits="userSpaceOnUse"
       id="clipPath92"><path
         d="M 0,1387 H 1920 V 0 H 0 Z"
         transform="translate(-969.51865,-892.27052)"
         id="path92-3" /></clipPath><clipPath
       clipPathUnits="userSpaceOnUse"
       id="clipPath94"><path
         d="M 0,1387 H 1920 V 0 H 0 Z"
         transform="translate(-1118.6377,-438.83891)"
         id="path94-1" /></clipPath><clipPath
       clipPathUnits="userSpaceOnUse"
       id="clipPath96"><path
         d="M 0,1387 H 1920 V 0 H 0 Z"
         transform="translate(-1279.3027,-375.08403)"
         id="path96-4" /></clipPath><clipPath
       clipPathUnits="userSpaceOnUse"
       id="clipPath98"><path
         d="M 0,1387 H 1920 V 0 H 0 Z"
         transform="translate(-1225.6827,-424.76861)"
         id="path98-9" /></clipPath><clipPath
       clipPathUnits="userSpaceOnUse"
       id="clipPath100"><path
         d="M 0,1387 H 1920 V 0 H 0 Z"
         transform="translate(-1215.378,-418.71394)"
         id="path100" /></clipPath><clipPath
       clipPathUnits="userSpaceOnUse"
       id="clipPath102"><path
         d="M 0,1387 H 1920 V 0 H 0 Z"
         transform="translate(-829.47662,-423.46871)"
         id="path102-2" /></clipPath><clipPath
       clipPathUnits="userSpaceOnUse"
       id="clipPath104"><path
         d="M 0,1387 H 1920 V 0 H 0 Z"
         transform="translate(-668.81252,-366.05763)"
         id="path104-0" /></clipPath><clipPath
       clipPathUnits="userSpaceOnUse"
       id="clipPath106"><path
         d="M 0,1387 H 1920 V 0 H 0 Z"
         transform="translate(-722.43264,-410.61821)"
         id="path106-6" /></clipPath><clipPath
       clipPathUnits="userSpaceOnUse"
       id="clipPath108"><path
         d="M 0,1387 H 1920 V 0 H 0 Z"
         transform="translate(-732.73682,-404.56354)"
         id="path108-8" /></clipPath><clipPath
       clipPathUnits="userSpaceOnUse"
       id="clipPath110"><path
         d="M 0,1387 H 1920 V 0 H 0 Z"
         transform="translate(-757.92242,-801.93652)"
         id="path110-9" /></clipPath><clipPath
       clipPathUnits="userSpaceOnUse"
       id="clipPath112"><path
         d="M 0,1387 H 1920 V 0 H 0 Z"
         transform="translate(-964.70515,-890.67872)"
         id="path112-2" /></clipPath><clipPath
       clipPathUnits="userSpaceOnUse"
       id="clipPath114"><path
         d="M 0,1387 H 1920 V 0 H 0 Z"
         transform="translate(-1209.9355,-827.51372)"
         id="path114-6" /></clipPath><clipPath
       clipPathUnits="userSpaceOnUse"
       id="clipPath116"><path
         d="M 0,1387 H 1920 V 0 H 0 Z"
         transform="translate(-1198.755,-835.57422)"
         id="path116-6" /></clipPath><clipPath
       clipPathUnits="userSpaceOnUse"
       id="clipPath118"><path
         d="M 0,1387 H 1920 V 0 H 0 Z"
         transform="translate(-724.59129,-840.01072)"
         id="path118" /></clipPath><clipPath
       clipPathUnits="userSpaceOnUse"
       id="clipPath120"><path
         d="M 0,1387 H 1920 V 0 H 0 Z"
         transform="translate(-1055.7306,-398.57808)"
         id="path120-4" /></clipPath><clipPath
       clipPathUnits="userSpaceOnUse"
       id="clipPath122"><path
         d="M 0,1387 H 1920 V 0 H 0 Z"
         transform="translate(-882.4966,-390.67773)"
         id="path122-9" /></clipPath><clipPath
       clipPathUnits="userSpaceOnUse"
       id="clipPath124"><path
         d="M 0,1387 H 1920 V 0 H 0 Z"
         transform="translate(-525.31884,-914.57913)"
         id="path124-5" /></clipPath></defs><g
     id="layer-MC1"
     transform="translate(-5640.3089,-289.72029)"
     style="display:inline"><path
       id="path74-4"
       d="M 0,0 -163.954,152.591 -564.911,55.192 -397.71,-123.371 -611.987,-245.119 -228.886,-425.307 0,-256.482 230.51,-425.307 615.234,-245.119 392.841,-115.255 550.302,56.816 152.592,146.098 Z"
       style="fill:#f7c6ae;fill-opacity:1;fill-rule:nonzero;stroke:none"
       transform="matrix(1.3333333,0,0,-1.3333333,6456.2916,506.19147)" /><path
       id="path77-9"
       d="M 1357.755,894.537 971.407,1009.792 576.943,894.537 968.161,750.062 Z"
       transform="matrix(1.3333333,0,0,-1.3333333,5160,1849.3333)"
       style="fill:url(#linearGradient77);stroke:none" /><path
       id="path78-0"
       d="m 0,0 224.017,168.824 v -543.91 c -0.527,-0.209 -1.01,-0.469 -1.448,-0.775 l -367.044,189.18 -9.739,258.107 z"
       style="fill:#d7ad97;fill-opacity:1;fill-rule:nonzero;stroke:none"
       transform="matrix(1.3333333,0,0,-1.3333333,6152.192,1072.1849)"
       clip-path="url(#clipPath79)" /><path
       id="path80-9"
       d="M 0,0 1.882,-1.357 234.8,-169.322 388.033,-97.896 376.616,-351.133 -1.561,-544.307 V -0.552 C -1,-0.419 -0.479,-0.233 0,0"
       style="fill:#f7c6ae;fill-opacity:1;fill-rule:nonzero;stroke:none"
       transform="matrix(1.3333333,0,0,-1.3333333,6452.9623,846.42187)"
       clip-path="url(#clipPath81)" /><path
       id="path82-1"
       d="M 0,0 56.635,-42.729 43.83,-47.076 -3.246,0 Z"
       style="fill:#f7c6ae;fill-opacity:1;fill-rule:nonzero;stroke:none"
       transform="matrix(1.3333333,0,0,-1.3333333,6457.3737,847.086)"
       clip-path="url(#clipPath83)" /><path
       id="path84-7"
       d="m 0,0 -0.11,-4.077 -157.351,-77.088 -4.008,14.055 z"
       style="fill:#f7c6ae;fill-opacity:1;fill-rule:nonzero;stroke:none"
       transform="matrix(1.3333333,0,0,-1.3333333,6970.3399,974.7864)"
       clip-path="url(#clipPath85)" /><g
       opacity="0.630005"
       id="g87"
       clip-path="url(#clipPath88)"><path
         d="m 0,0 214.276,-228.887 167.202,86.035 1.623,45.454 -154.214,-73.049 z"
         style="fill:#d7ad97;fill-opacity:1;fill-rule:nonzero;stroke:none"
         transform="matrix(1.3333333,0,0,-1.3333333,6459.5391,847.086)"
         clip-path="url(#clipPath86)"
         id="path87-7" /></g><path
       id="path89-1"
       d="m 0,0 -222.404,-223.993 c -0.158,-0.158 -0.4,-0.196 -0.598,-0.095 l -152.257,80.994 c -0.171,0.088 0,-0.192 0,0 l -1.624,50.323 c 0,0.374 -2.858,-0.18 -2.519,-0.337 l 153.213,-70.962 c 0.169,-0.078 0.367,-0.059 0.518,0.051 L -0.666,0.774 C -0.156,1.147 0.445,0.448 0,0"
       style="fill:#b79280;fill-opacity:1;fill-rule:nonzero;stroke:none"
       transform="matrix(1.3333333,0,0,-1.3333333,6449.0833,851.0912)"
       clip-path="url(#clipPath90)" /><path
       id="path91-1"
       d="m 0,0 1.021,-138.893 -2.682,-0.075 z"
       style="fill:#b79280;fill-opacity:1;fill-rule:nonzero;stroke:none"
       transform="matrix(1.3333333,0,0,-1.3333333,6452.6915,659.63933)"
       clip-path="url(#clipPath92)" /><path
       id="path93-5"
       d="m 0,0 c 0,0 -15.607,-126.843 3.193,-144.917 0,0 12.415,-3.873 -3.193,144.917"
       style="fill:#ff5a19;fill-opacity:1;fill-rule:nonzero;stroke:none"
       transform="matrix(1.3333333,0,0,-1.3333333,6651.5169,1264.2148)"
       clip-path="url(#clipPath94)" /><path
       id="path95-9"
       d="M 0,0 C 0,0 13.498,-2.73 -3.472,102.182 -3.472,102.182 -20.44,12.744 0,0"
       style="fill:#ff5a19;fill-opacity:1;fill-rule:nonzero;stroke:none"
       transform="matrix(1.3333333,0,0,-1.3333333,6865.7369,1349.2213)"
       clip-path="url(#clipPath96)" /><path
       id="path97-7"
       d="m 0,0 c 2.451,-14.131 -6.647,-27.509 -20.322,-29.881 -13.675,-2.371 -26.746,7.161 -29.198,21.292 -2.451,14.131 6.648,27.509 20.322,29.881 C -15.523,23.664 -2.451,14.131 0,0"
       style="fill:#ff5a19;fill-opacity:1;fill-rule:nonzero;stroke:none"
       transform="matrix(1.3333333,0,0,-1.3333333,6794.2435,1282.9752)"
       clip-path="url(#clipPath98)" /><path
       id="path99-7"
       d="m 0,0 c 0,-10.156 -8.233,-18.39 -18.39,-18.39 -10.157,0 -18.39,8.234 -18.39,18.39 0,10.156 8.233,18.391 18.39,18.391 C -8.233,18.391 0,10.156 0,0"
       style="fill:#f7c6ae;fill-opacity:1;fill-rule:nonzero;stroke:none"
       transform="matrix(1.3333333,0,0,-1.3333333,6780.5039,1291.0481)"
       clip-path="url(#clipPath100)" /><path
       id="path101-6"
       d="m 0,0 c 0,0 15.608,-121.292 -3.192,-138.575 0,0 -12.416,-3.703 3.192,138.575"
       style="fill:#491b02;fill-opacity:1;fill-rule:nonzero;stroke:none"
       transform="matrix(1.3333333,0,0,-1.3333333,6265.9688,1284.7084)"
       clip-path="url(#clipPath102)" /><path
       id="path103-7"
       d="M 0,0 C 0,0 -13.498,-2.904 3.471,108.646 3.471,108.646 20.44,13.551 0,0"
       style="fill:#491b02;fill-opacity:1;fill-rule:nonzero;stroke:none"
       transform="matrix(1.3333333,0,0,-1.3333333,6051.75,1361.2565)"
       clip-path="url(#clipPath104)" /><path
       id="path105-3"
       d="M 0,0 C -2.451,-14.131 6.647,-27.509 20.322,-29.881 33.996,-32.253 47.068,-22.72 49.52,-8.59 51.97,5.541 42.872,18.92 29.197,21.291 15.523,23.663 2.451,14.131 0,0"
       style="fill:#491b02;fill-opacity:1;fill-rule:nonzero;stroke:none"
       transform="matrix(1.3333333,0,0,-1.3333333,6123.2435,1301.8424)"
       clip-path="url(#clipPath106)" /><path
       id="path107-6"
       d="m 0,0 c 0,-10.157 8.233,-18.391 18.39,-18.391 10.156,0 18.39,8.234 18.39,18.391 0,10.156 -8.234,18.39 -18.39,18.39 C 8.233,18.39 0,10.156 0,0"
       style="fill:#d7ad97;fill-opacity:1;fill-rule:nonzero;stroke:none"
       transform="matrix(1.3333333,0,0,-1.3333333,6136.9824,1309.9153)"
       clip-path="url(#clipPath108)" /><path
       id="path109-5"
       d="M 0,0 C 0.268,-0.198 0.579,-0.344 0.911,-0.435 1.286,-0.538 1.66,-0.648 2.031,-0.771 2.044,-0.774 2.057,-0.779 2.07,-0.783 3.812,-1.356 5.664,-0.257 5.647,1.4 5.206,46.605 2.47,109.8 -4.256,198.153 c -0.215,2.823 -4.817,2.94 -5.201,0.132 C -13.755,166.842 -21.064,108.183 -24.573,49.9 -25.721,30.831 -16.711,12.389 -0.253,0.187 -0.168,0.125 -0.084,0.062 0,0"
       style="fill:#ff5a19;fill-opacity:1;fill-rule:nonzero;stroke:none"
       transform="matrix(1.3333333,0,0,-1.3333333,6170.5632,780.08467)"
       clip-path="url(#clipPath110)" /><path
       id="path111-6"
       d="m 0,0 c -24.032,0 -43.514,19.482 -43.514,43.514 0,24.032 19.482,43.514 43.514,43.514 24.032,0 43.514,-19.482 43.514,-43.514 C 43.514,19.482 24.032,0 0,0 m 67.896,57.841 c -5.799,33.435 -36.731,55.991 -69.086,50.38 -32.357,-5.613 -53.885,-37.268 -48.086,-70.703 5.799,-33.436 36.731,-55.992 69.087,-50.379 32.356,5.611 53.884,37.266 48.085,70.702"
       style="fill:#ff5a19;fill-opacity:1;fill-rule:nonzero;stroke:none"
       transform="matrix(1.3333333,0,0,-1.3333333,6446.2735,661.76173)"
       clip-path="url(#clipPath112)" /><path
       id="path113-3"
       d="M 0,0 C 6.714,3.259 13.741,6.578 20.99,9.396 19.427,53.625 16.149,110.1 10.343,182.264 c 0,0 -15.021,-96.86 -19.324,-186.778 C -6.004,-2.968 -3.007,-1.459 0,0"
       style="fill:#ff5a19;fill-opacity:1;fill-rule:nonzero;stroke:none"
       transform="matrix(1.3333333,0,0,-1.3333333,6773.2473,745.98173)"
       clip-path="url(#clipPath114)" /><path
       id="path115-9"
       d="M 0,0 34.754,12.888 34.904,-6.815 -0.814,-17.021 Z"
       style="fill:#f7c6ae;fill-opacity:1;fill-rule:nonzero;stroke:none"
       transform="matrix(1.3333333,0,0,-1.3333333,6758.3399,735.2344)"
       clip-path="url(#clipPath116)" /><path
       id="path117-4"
       d="m 0,0 48.344,-17.853 -8.733,-30.82 -37.42,23.814 z"
       style="fill:#f7c6ae;fill-opacity:1;fill-rule:nonzero;stroke:none"
       transform="matrix(1.3333333,0,0,-1.3333333,6126.1217,729.31907)"
       clip-path="url(#clipPath118)" /><path
       id="path119-8"
       d="m 0,0 113.317,107.956 c 15.962,16.286 35.482,18.01 58.654,4.781 l 90.216,-41.735 -57.639,16.651 c -1.473,0.442 -37.487,10.991 -38.967,11.407 -18.673,5.245 -35.726,5.269 -50.762,-7.805 z"
       style="fill:#ff5a19;fill-opacity:1;fill-rule:nonzero;stroke:none"
       transform="matrix(1.3333333,0,0,-1.3333333,6567.6407,1317.8959)"
       clip-path="url(#clipPath120)" /><path
       id="path121-1"
       d="m 0,0 -113.317,107.957 c -15.962,16.286 -35.481,18.009 -58.653,4.78 l -90.217,-41.734 57.64,16.651 c 1.472,0.442 37.486,10.991 38.966,11.406 18.673,5.246 35.726,5.269 50.762,-7.804 z"
       style="fill:#491b02;fill-opacity:1;fill-rule:nonzero;stroke:none"
       transform="matrix(1.3333333,0,0,-1.3333333,6336.6621,1328.4297)"
       clip-path="url(#clipPath122)" /><path
       id="path123-2"
       d="m 0,0 394.274,230.114 c 63.418,39.998 129.488,32.21 198.281,-24.64 L 866.559,14.577 685.179,105.333 c -4.623,2.368 -117.863,59.525 -122.527,61.818 -58.853,28.938 -115.608,40.508 -173.916,9.898 z"
       style="fill:#ff5a19;fill-opacity:1;fill-rule:nonzero;stroke:none"
       transform="matrix(1.3333333,0,0,-1.3333333,5860.4251,629.89453)"
       clip-path="url(#clipPath124)" /></g></svg>
